<svg xmlns="http://www.w3.org/2000/svg" width="26" height="26" viewBox="0 0 26 26" fill="none">
<path d="M20.5834 11.9166H14.0834V5.41659C14.0834 5.12927 13.9692 4.85372 13.7661 4.65055C13.5629 4.44739 13.2874 4.33325 13 4.33325C12.7127 4.33325 12.4372 4.44739 12.234 4.65055C12.0308 4.85372 11.9167 5.12927 11.9167 5.41659V11.9166H5.41671C5.12939 11.9166 4.85384 12.0307 4.65068 12.2339C4.44751 12.4371 4.33337 12.7126 4.33337 12.9999C4.33337 13.2872 4.44751 13.5628 4.65068 13.766C4.85384 13.9691 5.12939 14.0833 5.41671 14.0833H11.9167V20.5833C11.9167 20.8706 12.0308 21.1461 12.234 21.3493C12.4372 21.5525 12.7127 21.6666 13 21.6666C13.2874 21.6666 13.5629 21.5525 13.7661 21.3493C13.9692 21.1461 14.0834 20.8706 14.0834 20.5833V14.0833H20.5834C20.8707 14.0833 21.1462 13.9691 21.3494 13.766C21.5526 13.5628 21.6667 13.2872 21.6667 12.9999C21.6667 12.7126 21.5526 12.4371 21.3494 12.2339C21.1462 12.0307 20.8707 11.9166 20.5834 11.9166Z" fill="white"/>
</svg>
