<svg xmlns="http://www.w3.org/2000/svg" width="25" height="25" viewBox="0 0 25 25" fill="none">
  <path d="M12.0267 10.203C11.6311 10.2041 11.2448 10.3224 10.9165 10.543C10.5882 10.7637 10.3326 11.0767 10.1822 11.4426C10.0319 11.8084 9.99332 12.2107 10.0715 12.5984C10.1497 12.9862 10.3412 13.342 10.6216 13.621C10.9021 13.8999 11.2589 14.0895 11.6471 14.1656C12.0353 14.2417 12.4373 14.201 12.8024 14.0487C13.1674 13.8963 13.4791 13.6392 13.698 13.3097C13.9168 12.9802 14.0331 12.5932 14.032 12.1976C14.0306 11.6672 13.8185 11.1591 13.4425 10.785C13.0664 10.4109 12.5571 10.2016 12.0267 10.203ZM5.02673 10.2217C4.63117 10.2228 4.2448 10.3411 3.91649 10.5617C3.58818 10.7824 3.33267 11.0954 3.18227 11.4613C3.03188 11.8271 2.99335 12.2294 3.07155 12.6171C3.14976 13.0049 3.34119 13.3607 3.62164 13.6397C3.9021 13.9186 4.25897 14.1082 4.64714 14.1843C5.0353 14.2604 5.43733 14.2198 5.80238 14.0674C6.16742 13.9151 6.47909 13.6579 6.69798 13.3284C6.91686 12.9989 7.03312 12.6119 7.03207 12.2164C7.03065 11.6859 6.81858 11.1778 6.4425 10.8037C6.06643 10.4296 5.55716 10.2203 5.02673 10.2217ZM19.0267 10.1843C18.6311 10.1853 18.2448 10.3037 17.9164 10.5243C17.5881 10.745 17.3326 11.058 17.1822 11.4239C17.0318 11.7897 16.9933 12.1919 17.0715 12.5797C17.1497 12.9675 17.3411 13.3233 17.6216 13.6023C17.902 13.8812 18.2589 14.0708 18.6471 14.1469C19.0353 14.223 19.4373 14.1823 19.8023 14.03C20.1674 13.8776 20.479 13.6205 20.6979 13.291C20.9168 12.9615 21.0331 12.5745 21.032 12.1789C21.0306 11.6485 20.8185 11.1404 20.4425 10.7663C20.0664 10.3922 19.5571 10.1829 19.0267 10.1843Z" fill="#1E1E1E"/>
</svg>