<svg xmlns="http://www.w3.org/2000/svg" width="25" height="25" viewBox="0 0 25 25" fill="none">
  <path d="M12.0277 10.203C11.6321 10.2041 11.2458 10.3224 10.9174 10.543C10.5891 10.7637 10.3336 11.0767 10.1832 11.4426C10.0328 11.8084 9.9943 12.2107 10.0725 12.5984C10.1507 12.9862 10.3421 13.342 10.6226 13.621C10.903 13.8999 11.2599 14.0895 11.6481 14.1656C12.0363 14.2417 12.4383 14.201 12.8033 14.0487C13.1684 13.8963 13.48 13.6392 13.6989 13.3097C13.9178 12.9802 14.0341 12.5932 14.033 12.1976C14.0316 11.6672 13.8195 11.1591 13.4435 10.785C13.0674 10.4109 12.5581 10.2016 12.0277 10.203ZM5.0277 10.2217C4.63214 10.2228 4.24578 10.3411 3.91747 10.5617C3.58916 10.7824 3.33365 11.0954 3.18325 11.4613C3.03285 11.8271 2.99432 12.2294 3.07253 12.6171C3.15074 13.0049 3.34217 13.3607 3.62262 13.6397C3.90307 13.9186 4.25995 14.1082 4.64811 14.1843C5.03628 14.2604 5.43831 14.2198 5.80335 14.0674C6.1684 13.9151 6.48007 13.6579 6.69895 13.3284C6.91784 12.9989 7.0341 12.6119 7.03304 12.2164C7.03162 11.6859 6.81955 11.1778 6.44348 10.8037C6.0674 10.4296 5.55813 10.2203 5.0277 10.2217ZM19.0277 10.1843C18.6321 10.1853 18.2457 10.3037 17.9174 10.5243C17.5891 10.745 17.3336 11.058 17.1832 11.4239C17.0328 11.7897 16.9943 12.1919 17.0725 12.5797C17.1507 12.9675 17.3421 13.3233 17.6226 13.6023C17.903 13.8812 18.2599 14.0708 18.6481 14.1469C19.0362 14.223 19.4383 14.1823 19.8033 14.03C20.1683 13.8776 20.48 13.6205 20.6989 13.291C20.9178 12.9615 21.034 12.5745 21.033 12.1789C21.0316 11.6485 20.8195 11.1404 20.4434 10.7663C20.0674 10.3922 19.5581 10.1829 19.0277 10.1843Z" fill="#CFCECE"/>
</svg>