
<svg xmlns="http://www.w3.org/2000/svg" width="25" height="25" viewBox="0 0 25 25" fill="none">
<path d="M20.0427 8.13356L14.0568 2.85754C13.5081 2.36412 12.7967 2.09024 12.0588 2.08827C11.3209 2.08629 10.6081 2.35637 10.0568 2.84685L4.04274 8.09079C3.72435 8.37402 3.46995 8.72182 3.29648 9.11105C3.12301 9.50027 3.03445 9.92199 3.0367 10.3481L3.01334 19.0881C3.01121 19.8837 3.32524 20.6476 3.88634 21.2117C4.44745 21.7759 5.20966 22.094 6.00531 22.0961L18.0053 22.1282C18.8009 22.1303 19.5648 21.8163 20.1289 21.2552C20.693 20.6941 21.0111 19.9318 21.0133 19.1362L21.0367 10.3862C21.0398 9.96179 20.9528 9.54154 20.7814 9.15322C20.6101 8.7649 20.3583 8.41736 20.0427 8.13356ZM14.0106 20.1175L10.0106 20.1068L10.024 15.1068C10.0247 14.8416 10.1307 14.5875 10.3188 14.4005C10.5068 14.2135 10.7615 14.1088 11.0267 14.1095L13.0267 14.1148C13.2919 14.1155 13.546 14.2216 13.733 14.4096C13.92 14.5976 14.0247 14.8523 14.024 15.1175L14.0106 20.1175ZM19.0133 19.1308C19.0126 19.3961 18.9065 19.6501 18.7185 19.8372C18.5305 20.0242 18.2758 20.1289 18.0106 20.1282L16.0106 20.1228L16.024 15.1228C16.0261 14.3272 15.7121 13.5633 15.151 12.9992C14.5899 12.4351 13.8277 12.117 13.032 12.1148L11.032 12.1095C10.2364 12.1074 9.47247 12.4214 8.90836 12.9825C8.34425 13.5436 8.02614 14.3058 8.02401 15.1015L8.01065 20.1014L6.01065 20.0961C5.74544 20.0954 5.49137 19.9894 5.30433 19.8013C5.1173 19.6133 5.01262 19.3586 5.01333 19.0934L5.03672 10.3435C5.03728 10.2015 5.06807 10.0612 5.12704 9.93208C5.186 9.80292 5.2718 9.68779 5.37872 9.59437L11.3927 4.36043C11.5756 4.20059 11.8105 4.11281 12.0534 4.11346C12.2963 4.11411 12.5307 4.20315 12.7127 4.36395L18.6987 9.62997C18.8051 9.72397 18.8903 9.83955 18.9486 9.96902C19.0068 10.0985 19.0369 10.2389 19.0367 10.3809L19.0133 19.1308Z" fill="#1E1E1E"/>
</svg>