<svg xmlns="http://www.w3.org/2000/svg" width="25" height="25" viewBox="0 0 25 25" fill="none">
  <path d="M20.9785 8.3401L14.9926 3.06408C14.4439 2.57066 13.7326 2.29678 12.9947 2.29481C12.2567 2.29284 11.544 2.56291 10.9926 3.05339L4.97859 8.29734C4.6602 8.58056 4.4058 8.92836 4.23233 9.31759C4.05886 9.70681 3.9703 10.1285 3.97255 10.5547L3.94919 19.2946C3.94706 20.0903 4.26109 20.8542 4.8222 21.4183C5.3833 21.9824 6.14551 22.3005 6.94116 22.3026L18.9411 22.3347C19.7368 22.3368 20.5007 22.0228 21.0648 21.4617C21.6289 20.9006 21.947 20.1384 21.9491 19.3427L21.9725 10.5928C21.9756 10.1683 21.8886 9.74808 21.7173 9.35976C21.5459 8.97144 21.2941 8.6239 20.9785 8.3401ZM14.9465 20.324L10.9465 20.3133L10.9599 15.3133C10.9606 15.0481 11.0666 14.7941 11.2546 14.607C11.4427 14.42 11.6973 14.3153 11.9625 14.316L13.9625 14.3214C14.2277 14.3221 14.4818 14.4281 14.6688 14.6162C14.8559 14.8042 14.9606 15.0588 14.9598 15.324L14.9465 20.324ZM19.9491 19.3374C19.9484 19.6026 19.8424 19.8567 19.6544 20.0437C19.4663 20.2307 19.2117 20.3354 18.9465 20.3347L16.9465 20.3294L16.9598 15.3294C16.962 14.5337 16.6479 13.7698 16.0868 13.2057C15.5257 12.6416 14.7635 12.3235 13.9679 12.3214L11.9679 12.316C11.1722 12.3139 10.4083 12.6279 9.84421 13.189C9.2801 13.7501 8.96199 14.5124 8.95986 15.308L8.9465 20.308L6.94651 20.3026C6.68129 20.3019 6.42722 20.1959 6.24018 20.0079C6.05315 19.8198 5.94847 19.5652 5.94918 19.3L5.97257 10.55C5.97313 10.408 6.00392 10.2678 6.06289 10.1386C6.12186 10.0095 6.20766 9.89434 6.31457 9.80091L12.3286 4.56697C12.5115 4.40714 12.7463 4.31935 12.9892 4.32C13.2322 4.32065 13.4665 4.40969 13.6486 4.5705L19.6345 9.83652C19.7409 9.93051 19.8261 10.0461 19.8844 10.1756C19.9427 10.305 19.9727 10.4454 19.9725 10.5874L19.9491 19.3374Z" fill="#CFCECE"/>
</svg>