<svg xmlns="http://www.w3.org/2000/svg" width="24" height="25" viewBox="0 0 24 25" fill="none">
  <path d="M6.99966 8.59927H20.9997C21.5997 8.59927 21.9997 8.19927 21.9997 7.59927C21.9997 6.99927 21.5997 6.59927 20.9997 6.59927H6.99966C6.39966 6.59927 5.99966 6.99927 5.99966 7.59927C5.99966 8.19927 6.39966 8.59927 6.99966 8.59927ZM20.9997 11.5993H6.99966C6.39966 11.5993 5.99966 11.9993 5.99966 12.5993C5.99966 13.1993 6.39966 13.5993 6.99966 13.5993H20.9997C21.5997 13.5993 21.9997 13.1993 21.9997 12.5993C21.9997 11.9993 21.5997 11.5993 20.9997 11.5993ZM20.9997 16.5993H6.99966C6.39966 16.5993 5.99966 16.9993 5.99966 17.5993C5.99966 18.1993 6.39966 18.5993 6.99966 18.5993H20.9997C21.5997 18.5993 21.9997 18.1993 21.9997 17.5993C21.9997 16.9993 21.5997 16.5993 20.9997 16.5993ZM3.69966 6.89927C3.59966 6.79927 3.49966 6.69927 3.39966 6.69927C2.99966 6.49927 2.59966 6.59927 2.29966 6.89927C2.19966 6.99927 2.09966 7.09927 2.09966 7.19927C1.99966 7.49927 1.99966 7.69927 2.09966 7.99927C2.19966 8.09927 2.19966 8.19927 2.29966 8.29927C2.39966 8.39927 2.49966 8.49927 2.59966 8.49927C2.69966 8.59927 2.89966 8.59927 2.99966 8.59927C3.29966 8.59927 3.49966 8.49927 3.69966 8.29927C3.79966 8.19927 3.89966 8.09927 3.89966 7.99927C3.99966 7.69927 3.99966 7.49927 3.89966 7.19927C3.89966 7.09927 3.79966 6.99927 3.69966 6.89927ZM3.69966 11.8993C3.39966 11.5993 2.99966 11.4993 2.59966 11.6993C2.49966 11.7993 2.39966 11.7993 2.29966 11.8993C2.19966 11.9993 2.09966 12.0993 2.09966 12.1993C1.99966 12.3993 1.99966 12.6993 2.09966 12.9993C2.19966 13.0993 2.19966 13.1993 2.29966 13.2993C2.39966 13.3993 2.49966 13.4993 2.59966 13.4993C2.69966 13.5993 2.89966 13.5993 2.99966 13.5993C3.09966 13.5993 3.29966 13.5993 3.39966 13.4993C3.49966 13.3993 3.59966 13.3993 3.69966 13.2993C3.79966 13.1993 3.89966 13.0993 3.89966 12.9993C3.99966 12.7993 3.99966 12.4993 3.89966 12.1993C3.89966 12.0993 3.79966 11.9993 3.69966 11.8993ZM3.69966 16.8993C3.59966 16.7993 3.49966 16.6993 3.39966 16.6993C3.19966 16.5993 2.89966 16.5993 2.59966 16.6993C2.49966 16.6993 2.39966 16.7993 2.29966 16.8993C2.19966 16.9993 2.09966 17.0993 2.09966 17.1993C1.89966 17.5993 1.99966 17.9993 2.29966 18.2993C2.39966 18.3993 2.49966 18.4993 2.59966 18.4993C2.69966 18.5993 2.89966 18.5993 2.99966 18.5993C3.09966 18.5993 3.29966 18.5993 3.39966 18.4993C3.49966 18.3993 3.59966 18.3993 3.69966 18.2993C3.99966 17.9993 4.09966 17.5993 3.89966 17.1993C3.89966 17.0993 3.79966 16.9993 3.69966 16.8993Z" fill="black"/>
</svg>