<svg xmlns="http://www.w3.org/2000/svg" width="24" height="24" viewBox="0 0 24 24" fill="none">
  <path d="M7.00002 7.9999H21C21.6 7.9999 22 7.5999 22 6.9999C22 6.3999 21.6 5.9999 21 5.9999H7.00002C6.40002 5.9999 6.00002 6.3999 6.00002 6.9999C6.00002 7.5999 6.40002 7.9999 7.00002 7.9999ZM21 10.9999H7.00002C6.40002 10.9999 6.00002 11.3999 6.00002 11.9999C6.00002 12.5999 6.40002 12.9999 7.00002 12.9999H21C21.6 12.9999 22 12.5999 22 11.9999C22 11.3999 21.6 10.9999 21 10.9999ZM21 15.9999H7.00002C6.40002 15.9999 6.00002 16.3999 6.00002 16.9999C6.00002 17.5999 6.40002 17.9999 7.00002 17.9999H21C21.6 17.9999 22 17.5999 22 16.9999C22 16.3999 21.6 15.9999 21 15.9999ZM3.70002 6.2999C3.60002 6.1999 3.50002 6.0999 3.40002 6.0999C3.00002 5.8999 2.60002 5.9999 2.30002 6.2999C2.20002 6.3999 2.10002 6.4999 2.10002 6.5999C2.00002 6.8999 2.00002 7.0999 2.10002 7.3999C2.20002 7.4999 2.20002 7.5999 2.30002 7.6999C2.40002 7.7999 2.50002 7.8999 2.60002 7.8999C2.70002 7.9999 2.90002 7.9999 3.00002 7.9999C3.30002 7.9999 3.50002 7.8999 3.70002 7.6999C3.80002 7.5999 3.90002 7.4999 3.90002 7.3999C4.00002 7.0999 4.00002 6.8999 3.90002 6.5999C3.90002 6.4999 3.80002 6.3999 3.70002 6.2999ZM3.70002 11.2999C3.40002 10.9999 3.00002 10.8999 2.60002 11.0999C2.50002 11.1999 2.40002 11.1999 2.30002 11.2999C2.20002 11.3999 2.10002 11.4999 2.10002 11.5999C2.00002 11.7999 2.00002 12.0999 2.10002 12.3999C2.20002 12.4999 2.20002 12.5999 2.30002 12.6999C2.40002 12.7999 2.50002 12.8999 2.60002 12.8999C2.70002 12.9999 2.90002 12.9999 3.00002 12.9999C3.10002 12.9999 3.30002 12.9999 3.40002 12.8999C3.50002 12.7999 3.60002 12.7999 3.70002 12.6999C3.80002 12.5999 3.90002 12.4999 3.90002 12.3999C4.00002 12.1999 4.00002 11.8999 3.90002 11.5999C3.90002 11.4999 3.80002 11.3999 3.70002 11.2999ZM3.70002 16.2999C3.60002 16.1999 3.50002 16.0999 3.40002 16.0999C3.20002 15.9999 2.90002 15.9999 2.60002 16.0999C2.50002 16.0999 2.40002 16.1999 2.30002 16.2999C2.20002 16.3999 2.10002 16.4999 2.10002 16.5999C1.90002 16.9999 2.00002 17.3999 2.30002 17.6999C2.40002 17.7999 2.50002 17.8999 2.60002 17.8999C2.70002 17.9999 2.90002 17.9999 3.00002 17.9999C3.10002 17.9999 3.30002 17.9999 3.40002 17.8999C3.50002 17.7999 3.60002 17.7999 3.70002 17.6999C4.00002 17.3999 4.10002 16.9999 3.90002 16.5999C3.90002 16.4999 3.80002 16.3999 3.70002 16.2999Z" fill="#CFCECE"/>
</svg>